<svg width="34" height="34" viewBox="0 0 34 34" fill="none" xmlns="http://www.w3.org/2000/svg">
<path d="M17 0.333313C7.8 0.333313 0.333328 7.79998 0.333328 17C0.333328 26.2 7.8 33.6666 17 33.6666C26.2 33.6666 33.6667 26.2 33.6667 17C33.6667 7.79998 26.2 0.333313 17 0.333313ZM16.35 21.7333C16.35 23.55 14.9333 24.9666 13.1167 24.9666H10.65C8.86666 24.9666 7.41666 23.5166 7.41666 21.7333V17.2833C7.41666 12.15 8.53333 11 11.5167 9.23331C11.7167 9.11665 11.9333 9.06665 12.15 9.06665C12.5833 9.06665 13 9.28331 13.2333 9.68331C13.5833 10.2833 13.3833 11.05 12.8 11.4C10.7833 12.5666 10.0833 13 9.95 16.0166H13.1333C14.95 16.0166 16.3667 17.4333 16.3667 19.25V21.7333H16.35ZM26.5833 21.7333C26.5833 23.55 25.1667 24.9666 23.35 24.9666H20.8667C19.0833 24.9666 17.6333 23.5166 17.6333 21.7333V17.2833C17.6333 12.15 18.75 11 21.7333 9.23331C21.9333 9.11665 22.15 9.06665 22.3667 9.06665C22.8 9.06665 23.2167 9.28331 23.45 9.68331C23.8 10.2833 23.6 11.05 23.0167 11.4C21 12.6 20.3 13.0333 20.1667 16.05H23.35C25.1667 16.05 26.5833 17.4666 26.5833 19.2833V21.7333Z" fill="#E61C5D"/>
</svg>
