<svg width="80" height="16" viewBox="0 0 80 16" fill="none" xmlns="http://www.w3.org/2000/svg">
<path d="M8.53475 2.35749L9.63543 4.33758C9.78624 4.60937 10.1647 4.86757 10.476 4.90247L12.3287 5.13415C13.515 5.27993 13.8209 6.11743 13.0136 6.99466L11.6382 8.48078C11.4086 8.72983 11.2894 9.20494 11.3816 9.53104L11.8635 11.2807C12.2426 12.662 11.5217 13.2346 10.255 12.5561L8.48535 11.6081C8.16306 11.4348 7.65112 11.46 7.34834 11.6546L5.66373 12.7393C4.45779 13.5146 3.69041 13.0042 3.95503 11.5978L4.29388 9.81787C4.35714 9.48516 4.20547 9.02087 3.95512 8.79246L2.45304 7.422C1.57642 6.6159 1.81222 5.75675 2.98036 5.51317L4.80432 5.13416C5.11214 5.06764 5.46887 4.78694 5.59411 4.50134L6.52858 2.43449C7.03936 1.32091 7.9405 1.28582 8.53475 2.35749Z" fill="#FFBD39"/>
<path d="M24.5347 2.35749L25.6354 4.33758C25.7862 4.60937 26.1647 4.86757 26.476 4.90247L28.3287 5.13415C29.515 5.27993 29.8209 6.11743 29.0136 6.99466L27.6382 8.48078C27.4086 8.72983 27.2894 9.20494 27.3816 9.53104L27.8635 11.2807C28.2426 12.662 27.5217 13.2346 26.255 12.5561L24.4854 11.6081C24.1631 11.4348 23.6511 11.46 23.3483 11.6546L21.6637 12.7393C20.4578 13.5146 19.6904 13.0042 19.955 11.5978L20.2939 9.81787C20.3571 9.48516 20.2055 9.02087 19.9551 8.79246L18.453 7.422C17.5764 6.6159 17.8122 5.75675 18.9804 5.51317L20.8043 5.13416C21.1121 5.06764 21.4689 4.78694 21.5941 4.50134L22.5286 2.43449C23.0394 1.32091 23.9405 1.28582 24.5347 2.35749Z" fill="#FFBD39"/>
<path d="M40.5347 2.35749L41.6354 4.33758C41.7862 4.60937 42.1647 4.86757 42.476 4.90247L44.3287 5.13415C45.515 5.27993 45.8209 6.11743 45.0136 6.99466L43.6382 8.48078C43.4086 8.72983 43.2894 9.20494 43.3816 9.53104L43.8635 11.2807C44.2426 12.662 43.5217 13.2346 42.255 12.5561L40.4854 11.6081C40.1631 11.4348 39.6511 11.46 39.3483 11.6546L37.6637 12.7393C36.4578 13.5146 35.6904 13.0042 35.955 11.5978L36.2939 9.81787C36.3571 9.48516 36.2055 9.02087 35.9551 8.79246L34.453 7.422C33.5764 6.6159 33.8122 5.75675 34.9804 5.51317L36.8043 5.13416C37.1121 5.06764 37.4689 4.78694 37.5941 4.50134L38.5286 2.43449C39.0394 1.32091 39.9405 1.28582 40.5347 2.35749Z" fill="#FFBD39"/>
<path d="M56.5347 2.35749L57.6354 4.33758C57.7862 4.60937 58.1647 4.86757 58.476 4.90247L60.3287 5.13415C61.515 5.27993 61.8209 6.11743 61.0136 6.99466L59.6382 8.48078C59.4086 8.72983 59.2894 9.20494 59.3816 9.53104L59.8635 11.2807C60.2426 12.662 59.5217 13.2346 58.255 12.5561L56.4854 11.6081C56.1631 11.4348 55.6511 11.46 55.3483 11.6546L53.6637 12.7393C52.4578 13.5146 51.6904 13.0042 51.955 11.5978L52.2939 9.81787C52.3571 9.48516 52.2055 9.02087 51.9551 8.79246L50.453 7.422C49.5764 6.6159 49.8122 5.75675 50.9804 5.51317L52.8043 5.13416C53.1121 5.06764 53.4689 4.78694 53.5941 4.50134L54.5286 2.43449C55.0394 1.32091 55.9405 1.28582 56.5347 2.35749Z" fill="#FFBD39"/>
<path d="M72.5347 2.35749L73.6354 4.33758C73.7862 4.60937 74.1647 4.86757 74.476 4.90247L76.3287 5.13415C77.515 5.27993 77.8209 6.11743 77.0136 6.99466L75.6382 8.48078C75.4086 8.72983 75.2894 9.20494 75.3816 9.53104L75.8635 11.2807C76.2426 12.662 75.5217 13.2346 74.255 12.5561L72.4854 11.6081C72.1631 11.4348 71.6511 11.46 71.3483 11.6546L69.6637 12.7393C68.4578 13.5146 67.6904 13.0042 67.955 11.5978L68.2939 9.81787C68.3571 9.48516 68.2055 9.02087 67.9551 8.79246L66.453 7.422C65.5764 6.6159 65.8122 5.75675 66.9804 5.51317L68.8043 5.13416C69.1121 5.06764 69.4689 4.78694 69.5941 4.50134L70.5286 2.43449C71.0394 1.32091 71.9405 1.28582 72.5347 2.35749Z" fill="#FFBD39"/>
</svg>
